<svg xmlns="http://www.w3.org/2000/svg" viewBox="0 0 1440 320"><path fill="#0099ff" fill-opacity="1" d="M0,224L8,224C16,224,32,224,48,202.7C64,181,80,139,96,112C112,85,128,75,144,64C160,53,176,43,192,32C208,21,224,11,240,16C256,21,272,43,288,80C304,117,320,171,336,192C352,213,368,203,384,186.7C400,171,416,149,432,170.7C448,192,464,256,480,272C496,288,512,256,528,218.7C544,181,560,139,576,144C592,149,608,203,624,218.7C640,235,656,213,672,213.3C688,213,704,235,720,234.7C736,235,752,213,768,202.7C784,192,800,192,816,197.3C832,203,848,213,864,192C880,171,896,117,912,85.3C928,53,944,43,960,42.7C976,43,992,53,1008,90.7C1024,128,1040,192,1056,192C1072,192,1088,128,1104,117.3C1120,107,1136,149,1152,160C1168,171,1184,149,1200,122.7C1216,96,1232,64,1248,69.3C1264,75,1280,117,1296,144C1312,171,1328,181,1344,197.3C1360,213,1376,235,1392,218.7C1408,203,1424,149,1432,122.7L1440,96L1440,320L1432,320C1424,320,1408,320,1392,320C1376,320,1360,320,1344,320C1328,320,1312,320,1296,320C1280,320,1264,320,1248,320C1232,320,1216,320,1200,320C1184,320,1168,320,1152,320C1136,320,1120,320,1104,320C1088,320,1072,320,1056,320C1040,320,1024,320,1008,320C992,320,976,320,960,320C944,320,928,320,912,320C896,320,880,320,864,320C848,320,832,320,816,320C800,320,784,320,768,320C752,320,736,320,720,320C704,320,688,320,672,320C656,320,640,320,624,320C608,320,592,320,576,320C560,320,544,320,528,320C512,320,496,320,480,320C464,320,448,320,432,320C416,320,400,320,384,320C368,320,352,320,336,320C320,320,304,320,288,320C272,320,256,320,240,320C224,320,208,320,192,320C176,320,160,320,144,320C128,320,112,320,96,320C80,320,64,320,48,320C32,320,16,320,8,320L0,320Z"></path></svg>